HIERARCHY
ROOT hip
{
  OFFSET 0 0 0
  CHANNELS 6 Xposition Yposition Zposition Zrotation Yrotation Xrotation
  JOINT abdomen
  {
    OFFSET 0 20.6881 -0.73152
    CHANNELS 3 Zrotation Xrotation Yrotation
    JOINT chest
    {
      OFFSET 0 11.7043 -0.48768
      CHANNELS 3 Zrotation Xrotation Yrotation
      JOINT neck
      {
        OFFSET 0 22.1894 -2.19456
        CHANNELS 3 Zrotation Xrotation Yrotation
        JOINT head
        {
          OFFSET -0.24384 7.07133 1.2192
          CHANNELS 3 Zrotation Xrotation Yrotation
          JOINT leftEye
          {
            OFFSET 4.14528 8.04674 8.04672
            CHANNELS 3 Zrotation Xrotation Yrotation
            End Site
            {
              OFFSET 1 0 0
            }
          }
          JOINT rightEye
          {
            OFFSET -3.6576 8.04674 8.04672
            CHANNELS 3 Zrotation Xrotation Yrotation
            End Site
            {
              OFFSET 1 0 0
            }
          }
        }
      }
      JOINT rCollar
      {
        OFFSET -2.68224 19.2634 -4.8768
        CHANNELS 3 Zrotation Xrotation Yrotation
        JOINT rShldr
        {
          OFFSET -8.77824 -1.95073 1.46304
          CHANNELS 3 Zrotation Xrotation Yrotation
          JOINT rForeArm
          {
            OFFSET -28.1742 -1.7115 0.48768
            CHANNELS 3 Zrotation Xrotation Yrotation
            JOINT rHand
            {
              OFFSET -22.5879 0.773209 7.07136
              CHANNELS 3 Zrotation Xrotation Yrotation
              JOINT rThumb1
              {
                OFFSET -1.2192 -0.487915 3.41376
                CHANNELS 3 Zrotation Xrotation Yrotation
                JOINT rThumb2
                {
                  OFFSET -3.37035 -0.52449 3.41376
                  CHANNELS 3 Zrotation Xrotation Yrotation
                  End Site
                  {
                    OFFSET -1.78271 -1.18214 1.43049
                  }
                }
              }
              JOINT rIndex1
              {
                OFFSET -7.75947 0.938293 5.60832
                CHANNELS 3 Zrotation Xrotation Yrotation
                JOINT rIndex2
                {
                  OFFSET -2.54057 -0.884171 1.56538
                  CHANNELS 3 Zrotation Xrotation Yrotation
                  End Site
                  {
                    OFFSET -1.62519 -0.234802 1.16502
                  }
                }
              }
              JOINT rMid1
              {
                OFFSET -8.24714 1.18213 3.41376
                CHANNELS 3 Zrotation Xrotation Yrotation
                JOINT rMid2
                {
                  OFFSET -3.10165 -0.590103 1.0647
                  CHANNELS 3 Zrotation Xrotation Yrotation
                  End Site
                  {
                    OFFSET -2.48547 -0.328903 0.83742
                  }
                }
              }
              JOINT rRing1
              {
                OFFSET -8.82822 0.546677 1.51678
                CHANNELS 3 Zrotation Xrotation Yrotation
                JOINT rRing2
                {
                  OFFSET -2.60934 -0.819778 -0.0198488
                  CHANNELS 3 Zrotation Xrotation Yrotation
                  End Site
                  {
                    OFFSET -2.33842 -0.294052 0.168128
                  }
                }
              }
              JOINT rPinky1
              {
                OFFSET -8.27202 -0.0477905 -0.4584
                CHANNELS 3 Zrotation Xrotation Yrotation
                JOINT rPinky2
                {
                  OFFSET -1.82734 -0.647385 -0.700984
                  CHANNELS 3 Zrotation Xrotation Yrotation
                  End Site
                  {
                    OFFSET -1.69225 -0.51767 -0.607171
                  }
                }
              }
            }
          }
        }
      }
      JOINT lCollar
      {
        OFFSET 2.68224 19.2634 -4.8768
        CHANNELS 3 Zrotation Xrotation Yrotation
        JOINT lShldr
        {
          OFFSET 8.77824 -1.95073 1.46304
          CHANNELS 3 Zrotation Xrotation Yrotation
          JOINT lForeArm
          {
            OFFSET 28.1742 -1.7115 0.48768
            CHANNELS 3 Zrotation Xrotation Yrotation
            JOINT lHand
            {
              OFFSET 22.5879 0.773209 7.07136
              CHANNELS 3 Zrotation Xrotation Yrotation
              JOINT lThumb1
              {
                OFFSET 1.2192 -0.487915 3.41376
                CHANNELS 3 Zrotation Xrotation Yrotation
                JOINT lThumb2
                {
                  OFFSET 3.37035 -0.52449 3.41376
                  CHANNELS 3 Zrotation Xrotation Yrotation
                  End Site
                  {
                    OFFSET 1.78271 -1.18214 1.43049
                  }
                }
              }
              JOINT lIndex1
              {
                OFFSET 7.75947 0.938293 5.60832
                CHANNELS 3 Zrotation Xrotation Yrotation
                JOINT lIndex2
                {
                  OFFSET 2.54057 -0.884171 1.56538
                  CHANNELS 3 Zrotation Xrotation Yrotation
                  End Site
                  {
                    OFFSET 1.62519 -0.234802 1.16502
                  }
                }
              }
              JOINT lMid1
              {
                OFFSET 8.24714 1.18213 3.41376
                CHANNELS 3 Zrotation Xrotation Yrotation
                JOINT lMid2
                {
                  OFFSET 3.10165 -0.590103 1.0647
                  CHANNELS 3 Zrotation Xrotation Yrotation
                  End Site
                  {
                    OFFSET 2.48547 -0.328903 0.83742
                  }
                }
              }
              JOINT lRing1
              {
                OFFSET 8.82822 0.546677 1.51678
                CHANNELS 3 Zrotation Xrotation Yrotation
                JOINT lRing2
                {
                  OFFSET 2.60934 -0.819778 -0.0198488
                  CHANNELS 3 Zrotation Xrotation Yrotation
                  End Site
                  {
                    OFFSET 2.33842 -0.294052 0.168128
                  }
                }
              }
              JOINT lPinky1
              {
                OFFSET 8.27202 -0.0477905 -0.4584
                CHANNELS 3 Zrotation Xrotation Yrotation
                JOINT lPinky2
                {
                  OFFSET 1.82734 -0.647385 -0.700984
                  CHANNELS 3 Zrotation Xrotation Yrotation
                  End Site
                  {
                    OFFSET 1.69225 -0.51767 -0.607171
                  }
                }
              }
            }
          }
        }
      }
    }
  }
  JOINT rButtock
  {
    OFFSET -8.77824 4.35084 1.2192
    CHANNELS 3 Zrotation Xrotation Yrotation
    JOINT rThigh
    {
      OFFSET 0 -1.70687 -2.19456
      CHANNELS 3 Zrotation Xrotation Yrotation
      JOINT rShin
      {
        OFFSET 0 -36.8199 0.73152
        CHANNELS 3 Zrotation Xrotation Yrotation
        JOINT rFoot
        {
          OFFSET 0.73152 -45.1104 -5.12064
          CHANNELS 3 Zrotation Xrotation Yrotation
          End Site
          {
            OFFSET -1.1221 -3.69964 12.103
          }
        }
      }
    }
  }
  JOINT lButtock
  {
    OFFSET 8.77824 4.35084 1.2192
    CHANNELS 3 Zrotation Xrotation Yrotation
    JOINT lThigh
    {
      OFFSET 0 -1.70687 -2.19456
      CHANNELS 3 Zrotation Xrotation Yrotation
      JOINT lShin
      {
        OFFSET 0 -36.8199 0.73152
        CHANNELS 3 Zrotation Xrotation Yrotation
        JOINT lFoot
        {
          OFFSET -0.73152 -45.1104 -5.12064
          CHANNELS 3 Zrotation Xrotation Yrotation
          End Site
          {
            OFFSET 1.1221 -3.69964 12.103
          }
        }
      }
    }
  }
}
MOTION
Frames:	5
Frame Time:	0.00833333
-9.34095 82.7745 13.0504 -1.5914 42.9131 9.5061 -4.79348 -8.7955 8.76297 -1.95653 -5.28252 2.58496 5.18895 2.32301 0.562162 4.00283 9.70061 0.38164 -0.0 0.0 0.0 -0.0 0.0 0.0 1.47469e-13 -3.03617e-13 3.64838e-13 68.6735 58.9171 -3.55262 -28.4337 -35.978 76.9632 -0.176573 -11.9372 -1.7023 1.29566e-10 1.82003e-09 -3.43994e-09 2.55678e-10 3.15694e-09 -5.94647e-09 1.29579e-10 1.82003e-09 -3.43995e-09 7.73091 5.47488 0.417314 1.29566e-10 1.82002e-09 -3.43994e-09 2.90554 0.965183 0.102902 1.29581e-10 1.82003e-09 -3.43995e-09 10.2786 0.731801 0.0259123 1.29562e-10 1.82003e-09 -3.43992e-09 2.22167 -0.733487 -0.20892 1.4736e-13 -3.03621e-13 3.64636e-13 -64.6402 14.3446 27.0085 22.0652 -15.8556 -43.9662 0.0647465 7.24057 -1.0231 -2.13083e-09 -1.76317e-09 1.18322e-09 -3.67805e-09 -3.05767e-09 2.07159e-09 -2.13083e-09 -1.76317e-09 1.18323e-09 -7.73091 5.47488 -0.417314 -2.13083e-09 -1.76317e-09 1.18322e-09 -2.90554 0.965183 -0.102902 -2.13083e-09 -1.76317e-09 1.18322e-09 -10.2786 0.731801 -0.0259123 -2.13082e-09 -1.76317e-09 1.18322e-09 -2.22167 -0.733487 0.20892 -2.03217e-16 0.0 -3.88251e-19 -9.40605 -17.3643 -10.6842 -0.0874191 26.1741 0.688324 -8.44279 -8.59392 -28.8984 2.03217e-16 0.0 3.88251e-19 9.67692 -30.805 8.55441 0.126388 28.2827 -0.682109 10.16 -8.13919 35.2361
-9.83005 82.7762 13.2599 -1.4821 41.735 9.5479 -4.82143 -8.7333 8.3911 -1.92994 -5.30976 2.47635 5.07159 2.28855 0.591742 3.83346 9.56951 0.443846 -0.0 0.0 0.0 -0.0 0.0 0.0 2.3643e-13 -4.62686e-13 3.11076e-13 69.8937 58.794 -5.28134 -28.4336 -35.5032 76.1786 -0.157367 -11.2682 -1.6044 -1.84521e-10 1.17972e-09 -1.46679e-09 -3.0386e-10 2.04896e-09 -2.54132e-09 -1.84504e-10 1.17972e-09 -1.4668e-09 7.73091 5.47488 0.417314 -1.8452e-10 1.17971e-09 -1.46678e-09 2.90554 0.965183 0.102902 -1.84502e-10 1.17972e-09 -1.4668e-09 10.2786 0.731801 0.0259123 -1.84529e-10 1.17971e-09 -1.46677e-09 2.22167 -0.733487 -0.20892 2.36304e-13 -4.62688e-13 3.1091e-13 -64.4282 13.9648 26.8851 22.0708 -15.864 -43.9812 0.0663184 7.32808 -1.0356 -1.81877e-09 -1.45191e-09 5.97266e-10 -3.13971e-09 -2.52052e-09 1.05764e-09 -1.81878e-09 -1.45191e-09 5.97274e-10 -7.73091 5.47488 -0.417314 -1.81877e-09 -1.45191e-09 5.97274e-10 -2.90554 0.965183 -0.102902 -1.81878e-09 -1.45191e-09 5.97274e-10 -10.2786 0.731801 -0.0259123 -1.81877e-09 -1.45191e-09 5.97271e-10 -2.22167 -0.733487 0.20892 -2.03217e-16 0.0 -3.88251e-19 -9.25636 -17.9096 -10.5449 -0.0917696 26.3091 0.677742 -8.32666 -8.54713 -28.5689 2.03217e-16 0.0 3.88251e-19 9.88238 -30.4434 8.46141 0.119515 28.0235 -0.699736 10.7061 -8.39952 36.2651
-10.3358 82.7786 13.4643 -1.3802 40.5619 9.5855 -4.8961 -8.66331 8.02056 -1.90593 -5.34007 2.36851 4.98126 2.27247 0.623991 3.63889 9.41543 0.509859 -0.0 0.0 0.0 -0.0 0.0 0.0 2.58496e-13 -4.99347e-13 2.2905e-13 71.0953 58.6003 -6.92751 -28.4262 -35.0276 75.391 -0.144006 -10.7551 -1.52972 -3.65929e-10 2.75697e-10 2.3239e-10 -6.31767e-10 4.82566e-10 3.9327e-10 -3.6591e-10 2.75697e-10 2.32375e-10 7.73091 5.47488 0.417314 -3.65927e-10 2.75691e-10 2.32394e-10 2.90554 0.965183 0.102902 -3.65908e-10 2.75697e-10 2.32378e-10 10.2786 0.731801 0.0259123 -3.65939e-10 2.75694e-10 2.32409e-10 2.22167 -0.733487 -0.20892 2.58362e-13 -4.99348e-13 2.28901e-13 -64.2148 13.6018 26.7538 22.079 -15.8764 -44.0036 0.0677592 7.4067 -1.04684 -1.30776e-09 -8.91436e-10 8.21474e-11 -2.25803e-09 -1.5501e-09 1.62386e-10 -1.30777e-09 -8.91436e-10 8.21569e-11 -7.73091 5.47488 -0.417314 -1.30776e-09 -8.91439e-10 8.21569e-11 -2.90554 0.965183 -0.102902 -1.30777e-09 -8.91439e-10 8.21561e-11 -10.2786 0.731801 -0.0259123 -1.30776e-09 -8.91437e-10 8.21537e-11 -2.22167 -0.733487 0.20892 -2.03217e-16 0.0 -3.88251e-19 -9.13135 -18.4529 -10.3124 -0.0970429 26.4911 0.667115 -8.18852 -8.50136 -28.155 2.03217e-16 0.0 3.88251e-19 10.0287 -30.0451 8.2872 0.111776 27.7105 -0.717961 11.3053 -8.7117 37.3024
-10.8518 82.7815 13.6666 -1.2675 39.3981 9.6268 -5.03081 -8.58023 7.65939 -1.89171 -5.37722 2.26351 4.93004 2.28002 0.656111 3.41744 9.23066 0.57248 -0.0 0.0 0.0 -0.0 0.0 0.0 1.63647e-13 -3.22659e-13 5.87576e-14 72.299 58.3209 -8.49822 -28.412 -34.5511 74.601 -0.136312 -10.451 -1.48556 -3.55837e-10 -1.65596e-09 1.98952e-09 -6.28825e-10 -2.86664e-09 3.43288e-09 -3.5582e-10 -1.65596e-09 1.9895e-09 7.73091 5.47488 0.417314 -3.55835e-10 -1.65597e-09 1.98952e-09 2.90554 0.965183 0.102902 -3.55817e-10 -1.65596e-09 1.98951e-09 10.2786 0.731801 0.0259123 -3.55846e-10 -1.65597e-09 1.98954e-09 2.22167 -0.733487 -0.20892 1.6352e-13 -3.22659e-13 5.85918e-14 -63.9864 13.267 26.6099 22.0899 -15.8929 -44.0332 0.0690273 7.47471 -1.05656 -2.46023e-10 4.06261e-10 -4.73447e-10 -4.25974e-10 7.00018e-10 -8.11628e-10 -2.4603e-10 4.06263e-10 -4.73436e-10 -7.73091 5.47488 -0.417314 -2.46023e-10 4.0626e-10 -4.7344e-10 -2.90554 0.965183 -0.102902 -2.46032e-10 4.0626e-10 -4.73441e-10 -10.2786 0.731801 -0.0259123 -2.46021e-10 4.06261e-10 -4.73446e-10 -2.22167 -0.733487 0.20892 -2.03217e-16 0.0 -3.88251e-19 -9.03361 -18.9988 -9.94415 -0.103506 26.733 0.656139 -8.0216 -8.45002 -27.6414 2.03217e-16 0.0 3.88251e-19 10.1061 -29.6049 8.01409 0.102867 27.3313 -0.737302 11.9789 -9.07521 38.3861
-11.3635 82.7847 13.8659 -1.1083 38.2579 9.6882 -5.20943 -8.48469 7.30396 -1.8876 -5.41895 2.16006 4.90599 2.30299 0.686861 3.17514 9.02082 0.630447 -0.0 0.0 0.0 -0.0 0.0 0.0 -1.0436e-14 1.9829e-14 -1.68076e-13 73.4719 57.9635 -9.97469 -28.3888 -34.062 73.7997 -0.131285 -10.2601 -1.45783 -2.27325e-10 -4.35653e-09 3.91402e-09 -4.22529e-10 -7.54964e-09 6.76499e-09 -2.27313e-10 -4.35653e-09 3.91401e-09 7.73091 5.47488 0.417314 -2.27324e-10 -4.35654e-09 3.91402e-09 2.90554 0.965183 0.102902 -2.27308e-10 -4.35653e-09 3.91402e-09 10.2786 0.731801 0.0259123 -2.27331e-10 -4.35653e-09 3.91404e-09 2.22167 -0.733487 -0.20892 -1.05458e-14 1.98276e-14 -1.68277e-13 -63.7497 12.9509 26.4513 22.1034 -15.9134 -44.07 0.0700814 7.53123 -1.06465 1.22094e-09 2.24994e-09 -1.08021e-09 2.10533e-09 3.89771e-09 -1.88029e-09 1.22093e-09 2.24994e-09 -1.0802e-09 -7.73091 5.47488 -0.417314 1.22094e-09 2.24994e-09 -1.08021e-09 -2.90554 0.965183 -0.102902 1.22093e-09 2.24994e-09 -1.08021e-09 -10.2786 0.731801 -0.0259123 1.22094e-09 2.24994e-09 -1.08022e-09 -2.22167 -0.733487 0.20892 -2.03217e-16 0.0 -3.88251e-19 -8.95206 -19.5474 -9.4745 -0.11097 27.0292 0.64458 -7.82481 -8.38484 -27.0355 2.03217e-16 0.0 3.88251e-19 10.1284 -29.1284 7.64793 0.0927863 26.8954 -0.75759 12.7234 -9.47592 39.5148
